<svg xmlns="http://www.w3.org/2000/svg" viewBox="0 0 159.08 153.16"><defs><style>.cls-1{fill:#fff;}</style></defs><title>Asset 5</title><g id="Layer_2" data-name="Layer 2"><g id="HEADER"><path class="cls-1" d="M48.69,49.89V79.72c0,1.19.14,1-1,1H43.29c-.77,0-.72.06-.72-.75V41c0-1.07-.12-.94.92-.94,1.79,0,3.57,0,5.35,0a1.23,1.23,0,0,1,1.16.62q8.32,12,16.68,24l4.11,5.89.28.35a1.58,1.58,0,0,0,.1-.87V41c0-1.06-.14-.95.92-.95,1.49,0,3,0,4.47,0,.91,0,.79,0,.79.83s0,1.54,0,2.31V80c0,.84.06.78-.77.78-1.84,0-3.68,0-5.51,0a1.29,1.29,0,0,1-1.22-.66Q59.62,65.35,49.34,50.64A2.25,2.25,0,0,0,48.69,49.89Z"/><path class="cls-1" d="M114.91,60.33a21.41,21.41,0,0,1,5.84-15,19.82,19.82,0,0,1,10.31-5.69,22.33,22.33,0,0,1,13.68,1.12A19.6,19.6,0,0,1,156.69,55,22.22,22.22,0,0,1,155,70.48a19.53,19.53,0,0,1-14,10.72,22,22,0,0,1-14.76-1.71,19.84,19.84,0,0,1-10.75-13.7A24.32,24.32,0,0,1,114.91,60.33Zm21.2,15.57a14.21,14.21,0,0,0,13.51-9.05,17.08,17.08,0,0,0,.86-10,14.38,14.38,0,0,0-14-11.9A14.23,14.23,0,0,0,122.62,54a17.12,17.12,0,0,0-.68,10.65A14.33,14.33,0,0,0,136.11,75.9Z"/><path class="cls-1" d="M0,80.73a1,1,0,0,1,.18-.68Q8.84,60.37,17.52,40.69a.85.85,0,0,1,.93-.62c1.33,0,2.67,0,4,0a.89.89,0,0,1,1,.66Q27,49.21,30.62,57.66l9.47,22.28a2,2,0,0,1,.24.68c-.14.19-.34.1-.5.1-1.94,0-3.89,0-5.83,0a.83.83,0,0,1-.91-.64c-1.12-2.78-2.28-5.55-3.43-8.32-.27-.64-.27-.65-1-.65H11.54c-.86,0-.69-.06-1,.72-1.16,2.74-2.32,5.48-3.44,8.23a.89.89,0,0,1-1,.66C4.09,80.7,2.06,80.73,0,80.73ZM27,65.26,20.31,48.67l-7,16.59Z"/><path class="cls-1" d="M90,56.61l9.63-9.15c2.41-2.29,4.83-4.58,7.23-6.88a1.65,1.65,0,0,1,1.26-.51c2.45,0,4.89,0,7.34,0h.7a1.87,1.87,0,0,1-.6.69L96.89,58c-.81.74-.81.74-.06,1.53l19.38,20.32c.24.25.46.5.7.77-.22.2-.44.11-.63.11-2.45,0-4.9,0-7.34,0a1.57,1.57,0,0,1-1.31-.56q-8.38-9-16.79-18L90,61.31V80.12c0,.59,0,.6-.62.6q-2.47,0-4.95,0c-.6,0-.6,0-.61-.62V41c0-.13,0-.27,0-.4,0-.36.07-.53.48-.52,1.76,0,3.51,0,5.27,0,.29,0,.45.09.43.41a5.23,5.23,0,0,0,0,.56V56.61Z"/><path class="cls-1" d="M9.07,148.05a55.72,55.72,0,0,1,10.47-5.39,67.89,67.89,0,0,1,13.21-3.5,110,110,0,0,1,12.68-1.3c5.08-.25,10.16-.21,15.23-.06,4.39.13,8.77.38,13.15.62,5.07.28,10.13.61,15.21.82,3,.12,5.9.2,8.85.19a106.07,106.07,0,0,0,11.54-.6,88.09,88.09,0,0,0,24.78-6.23c1.2-.51,2.37-1.07,3.56-1.6.23-.11.44-.31.72-.26a.62.62,0,0,1,.07.39c0,2,0,4.05,0,6.07a.66.66,0,0,1-.51.75,117.46,117.46,0,0,1-14.84,4.26,88.6,88.6,0,0,1-10,1.54,103.61,103.61,0,0,1-14.74.26q-3.59-.18-7.16-.54c-2.8-.27-5.6-.61-8.38-1-4.68-.69-9.35-1.46-14-2.12-3.05-.43-6.12-.71-9.2-.88-2.58-.14-5.15-.3-7.73-.26a15.86,15.86,0,0,0-2.18,0A116.57,116.57,0,0,0,37.4,140a7,7,0,0,0-1.71.18,13.61,13.61,0,0,0-2.54.42,63.86,63.86,0,0,0-7.87,1.62,59.56,59.56,0,0,0-14.82,5.92,46,46,0,0,0-7.06,5L3.27,153a.4.4,0,0,1,0-.11l.28-.33,3.26-2.77c.4-.29.82-.56,1.2-.88S8.83,148.48,9.07,148.05Z"/><path class="cls-1" d="M37.4,140a116.57,116.57,0,0,1,12.39-.78,7.46,7.46,0,0,0,2.21.13c3.16.22,6.3.53,9.45.9,4.88.58,9.74,1.32,14.61,2,3.63.51,7.26,1.06,10.9,1.53q6.17.8,12.36,1.36a98.21,98.21,0,0,0,11.63.42,111.6,111.6,0,0,0,14.37-1.35,114,114,0,0,0,12.52-2.74c.7-.2.69-.2.71-.89,0-.43-.16-.92.08-1.25s.75-.35,1.14-.49a69.83,69.83,0,0,0,16.82-8.67,3.14,3.14,0,0,1,.39-.24c.3.12.25.41.3.62q.87,3.31,1.71,6.63c.16.62.16.63-.41.89a110.43,110.43,0,0,1-19.26,6.88,99.8,99.8,0,0,1-14.27,2.51,113.81,113.81,0,0,1-16.41.42c-3.25-.14-6.48-.39-9.71-.72s-6.28-.74-9.41-1.19c-4.23-.61-8.45-1.3-12.68-2-3.8-.61-7.6-1.23-11.41-1.83s-7.88-1.17-11.85-1.55A109.64,109.64,0,0,0,42.27,140c-1.3,0-2.61.07-3.91.11C38.05,140,37.68,140.25,37.4,140Z"/><path class="cls-1" d="M78.27,31.44H51.86c-1.07,0-1,.07-1-1V26.13c0-.7,0-.72.71-.74.14,0,.27,0,.4,0h52.58c1.21,0,1.08-.1,1.08,1.06,0,1.46,0,2.93,0,4.39,0,.58,0,.58-.57.6H78.27Z"/><path class="cls-1" d="M102.73,22.67h-3.5c-.58,0-.6,0-.6-.58,0-2.34,0-4.67,0-7,0-.57,0-.58.58-.59h7.09c.58,0,.6,0,.6.58q0,3.49,0,7c0,.56,0,.59-.58.59Z"/><path class="cls-1" d="M90.44,22.66c-1.17,0-2.34,0-3.5,0-.58,0-.6,0-.6-.58,0-2.33,0-4.67,0-7,0-.57,0-.58.59-.59H94c.58,0,.6,0,.6.58,0,2.33,0,4.67,0,7,0,.57,0,.59-.59.59C92.83,22.67,91.63,22.66,90.44,22.66Z"/><path class="cls-1" d="M78.14,22.66c-1.17,0-2.34,0-3.51,0-.57,0-.59,0-.59-.58q0-3.51,0-7c0-.56,0-.58.59-.59h7.09c.57,0,.59,0,.59.59q0,3.49,0,7c0,.56,0,.58-.59.58C80.53,22.67,79.33,22.66,78.14,22.66Z"/><path class="cls-1" d="M93.8,99.43l2.73-7.9c.5-1.44.5-1.44,2.13-1.29l-5,13.38c-.67-1.71-1.15-3.31-1.69-4.88L90.35,94h-.16L87,103.48h-.14c-1.64-4.39-3.27-8.79-4.91-13.16.08-.07.12-.13.15-.13,1.48-.07,1.48-.07,2,1.34.85,2.48,1.7,5,2.56,7.45a.63.63,0,0,0,.3.47c1.1-3.2,2.19-6.39,3.34-9.77l3.39,9.76Z"/><path class="cls-1" d="M81.83,7.48c-.48,0-1,0-1.43,0s-.61,0-.61.64c0,1,0,1.91,0,2.87,0,.59,0,.6-.65.61H77.22c-.75,0-.77,0-.78-.75,0-.93,0-1.87,0-2.8,0-.55,0-.57-.6-.57-1,0-1.91,0-2.87,0-.4,0-.58-.12-.57-.55q0-1.15,0-2.31c0-.38.16-.51.53-.5H75.8c.62,0,.63,0,.64-.62,0-1,0-1.91,0-2.87,0-.56.06-.61.59-.62.74,0,1.49,0,2.23,0,.45,0,.54.2.53.59,0,1,0,1.91,0,2.87,0,.65,0,.65.67.66,1,0,1.91,0,2.87,0,.56,0,.57,0,.58.58s0,1.44,0,2.16,0,.59-.64.6Z"/><path class="cls-1" d="M61.72,18.54V15.1c0-.58,0-.6.56-.61h7c.58,0,.6,0,.6.58q0,3.51,0,7c0,.56,0,.58-.6.58h-7c-.41,0-.57-.14-.56-.55C61.73,20.93,61.72,19.73,61.72,18.54Z"/><path class="cls-1" d="M53.44,22.67H50c-.56,0-.59,0-.59-.59q0-3.51,0-7c0-.54,0-.56.6-.57,2.34,0,4.68,0,7,0,.4,0,.55.14.55.56,0,2.36,0,4.73,0,7.09,0,.43-.17.55-.57.55C55.83,22.66,54.63,22.67,53.44,22.67Z"/><path class="cls-1" d="M2.18,103.07c-1.53.18-1.53.18-1.53-1.25V91.13c0-.18,0-.37,0-.56.06-.7.61-.3.93-.37s.65-.13.64.41c0,1.17,0,2.34,0,3.51,0,.22,0,.43,0,.64s.11.42.41.42c2,0,4,0,6.06,0,.33,0,.4-.14.39-.43V90.84c0-.64,0-.64.65-.65H10c.72,0,.7,0,.7.69V102.6a.85.85,0,0,1-.07.49,4.86,4.86,0,0,1-1.52,0c0-1.84,0-3.68,0-5.51,0-1,.14-.88-.89-.88-1.73,0-3.46,0-5.18,0-.89,0-.79-.05-.79.75v5C2.21,102.67,2.19,102.87,2.18,103.07Z"/><path class="cls-1" d="M68.06,97.06l4.85,6.07c-.67,0-1.2,0-1.72,0-.34,0-.45-.25-.6-.46-1.33-1.72-2.65-3.46-4-5.19-.13-.16-.21-.37-.43-.45-.24.11-.14.32-.14.49,0,1.67,0,3.35,0,5,0,.57,0,.58-.56.58-1.21,0-1,.1-1-.95,0-3.67,0-7.34,0-11,0-.19,0-.37,0-.56s.09-.44.41-.43a38.09,38.09,0,0,1,4.14.11,2.88,2.88,0,0,1,2.57,2.37,4.64,4.64,0,0,1,.06,1.82,2.72,2.72,0,0,1-2.32,2.4C69,97,68.58,97,68.06,97.06Zm-.71-1.23c.41,0,.83,0,1.25-.09a1.65,1.65,0,0,0,1.24-.64A2.67,2.67,0,0,0,70,92.66a1.68,1.68,0,0,0-1.64-1c-.63-.06-1.27,0-1.91-.06-.35,0-.45.12-.44.46,0,.84,0,1.69,0,2.54,0,.39-.17.88.08,1.15S66.92,95.75,67.35,95.83Z"/><path class="cls-1" d="M131.89,97.12l4.75,5.94a7.6,7.6,0,0,1-1.77.06c-.28,0-.37-.27-.51-.46-1.3-1.68-2.58-3.37-3.88-5a1.5,1.5,0,0,0-.54-.58c-.19.18-.12.4-.12.59,0,1.65,0,3.3,0,4.95,0,.55,0,.56-.56.56-1.16,0-.94.1-.94-.9q0-5.58,0-11.16c0-.18,0-.37,0-.56a.28.28,0,0,1,.34-.32,36.58,36.58,0,0,1,4.06.08,3,3,0,0,1,2.79,2.88,1.93,1.93,0,0,1,0,.24c.13,2.2-.8,3.32-3,3.59C132.33,97,132.13,96.94,131.89,97.12Zm-.63-5.57c-.39,0-.68,0-1,0s-.49.07-.49.44c0,1.14,0,2.28,0,3.42,0,.3.11.44.42.43.63,0,1.27,0,1.9-.07,1.49-.11,1.9-.87,1.86-2.23a4.11,4.11,0,0,0-.07-.47,1.58,1.58,0,0,0-1.26-1.37A5.93,5.93,0,0,0,131.26,91.55Z"/><path class="cls-1" d="M149.06,95.76l4.26-4.51c1.06-1.12,1.06-1.12,2.71-1,0,.3-.28.44-.45.62l-4.45,4.68c-.5.52-.5.52,0,1q2.55,3,5.09,5.93a1.33,1.33,0,0,1,.41.63c-.55,0-1.08,0-1.6,0-.37,0-.5-.26-.68-.48-1.58-1.87-3.14-3.75-4.71-5.62-.18-.22-.38-.42-.66-.74V103c-.1.08-.13.14-.17.14-1.41.13-1.41.13-1.41-1.29V90.49c0-.11,0-.25.14-.27a3.56,3.56,0,0,1,1.26,0c.22,0,.14.32.14.49,0,1.41,0,2.82,0,4.23v.77Z"/><path class="cls-1" d="M21.34,103.13c2-4.52,3.89-8.91,5.87-13.45L33,103c-.08.08-.09.11-.11.11-1.48.13-1.48.13-2.07-1.26-.31-.73-.62-1.46-.92-2.2a.6.6,0,0,0-.64-.45c-1.39,0-2.77,0-4.15,0a.59.59,0,0,0-.64.44c-.41,1-.85,2-1.26,3-.14.34-.3.53-.7.48A11.85,11.85,0,0,0,21.34,103.13Zm7.91-5.3-2-4.69-2,4.69Z"/><path class="cls-1" d="M42,103.13c2-4.46,3.83-8.79,5.73-13.12a1.22,1.22,0,0,1,.18-.23L53.74,103c-.07.06-.09.09-.11.09-1.49.13-1.49.13-2.07-1.25-.31-.73-.64-1.46-.93-2.2A.59.59,0,0,0,50,99.2c-1.39,0-2.77,0-4.15,0a.61.61,0,0,0-.65.45c-.39,1-.83,1.95-1.22,2.93-.16.4-.34.63-.81.56A8.29,8.29,0,0,0,42,103.13Zm7.89-5.31-2-4.68-2,4.68Z"/><path class="cls-1" d="M62.2,119c0,.67,0,1.19,0,1.71a.56.56,0,0,1-.3.52,6.87,6.87,0,0,1-10.74-4.45,6.69,6.69,0,0,1,3.8-7.29,7.08,7.08,0,0,1,6.92.56c.15.1.33.19.31.42s0,.26,0,.4v1.43a5.58,5.58,0,0,0-5-1.94,5,5,0,0,0-3.27,1.8,5.54,5.54,0,0,0,.14,7.16,5.11,5.11,0,0,0,4,1.7A5.74,5.74,0,0,0,62.2,119Z"/><path class="cls-1" d="M88.75,108.59,94.59,122c-.09.06-.13.1-.17.1-1.45,0-1.45,0-2-1.25-.31-.73-.64-1.46-.92-2.2a.67.67,0,0,0-.75-.52q-2,0-4,0a.63.63,0,0,0-.71.46c-.39,1-.84,2-1.22,2.94-.17.43-.38.66-.87.59a9.34,9.34,0,0,0-1.08,0Zm0,3.46c-.71,1.63-1.35,3.12-2,4.67h4Z"/><path class="cls-1" d="M34.77,109.13h2.45c1.28,0,2.55,0,3.83,0,.35,0,.46.11.45.46,0,1.22.07,1-1,1H36.79c-.55,0-.56,0-.56.58,0,.83,0,1.65,0,2.47,0,.61,0,.62.6.63,1.38,0,2.76,0,4.15,0,.43,0,.57.14.52.54a1.34,1.34,0,0,0,0,.4c0,.43-.14.53-.55.52-1.38,0-2.76,0-4.14,0-.57,0-.58,0-.58.56,0,1.22,0,2.44,0,3.67,0,.69,0,.7.68.7,1.35,0,2.71,0,4.06,0,.43,0,.58.13.53.54a1.34,1.34,0,0,0,0,.4c0,.42-.14.53-.55.53-1.91,0-3.82,0-5.74,0-.34,0-.53,0-.53-.47q0-6.1,0-12.2A2.22,2.22,0,0,1,34.77,109.13Z"/><path class="cls-1" d="M109.48,96.64V90.9c0-.7,0-.71.67-.71h5.5c.67,0,.67,0,.67.71a1.92,1.92,0,0,0,0,.24c.06.39-.12.5-.49.49-1.25,0-2.5,0-3.75,0-1,0-1,0-1,1.07,0,.72,0,1.44,0,2.15,0,.41.15.49.51.48,1.36,0,2.71,0,4.07,0,.22,0,.56-.13.65.13a2.06,2.06,0,0,1,0,1.18c-.06.2-.33.11-.5.12h-4.39c-.23,0-.33.1-.33.33,0,1.44,0,2.87,0,4.31,0,.32.2.31.42.31h4c.94,0,.84-.14.87.93,0,.36-.08.51-.48.51-2,0-3.94,0-5.9,0-.41,0-.48-.16-.48-.52C109.49,100.63,109.48,98.64,109.48,96.64Z"/><path class="cls-1" d="M137,111.55c-.27-.17-.36-.43-.54-.62a2.21,2.21,0,0,0-1.91-.81,1.8,1.8,0,0,0-1.64,1.19,1.83,1.83,0,0,0,.48,2,4.11,4.11,0,0,0,1.22.74c.7.32,1.41.61,2.1.94a3.7,3.7,0,0,1,2,4.81,3.6,3.6,0,0,1-3.28,2.51,3.9,3.9,0,0,1-4.43-2.44c-.19-.52-.19-.52.31-.78.23-.13.47-.24.71-.35a.74.74,0,0,1,.18,0c.18.19.19.47.29.7a2.52,2.52,0,0,0,3.29,1.45,2.39,2.39,0,0,0,.89-4,4.21,4.21,0,0,0-1.4-.9c-.63-.27-1.27-.52-1.89-.82a3.53,3.53,0,0,1-2-2.09,3.15,3.15,0,0,1,2.25-4.16,4.57,4.57,0,0,1,2.59,0A3.26,3.26,0,0,1,138,110.4c.15.22.22.41-.09.57S137.3,111.36,137,111.55Z"/><path class="cls-1" d="M1.53,118.71c.18.4.3.75.48,1.07a2.59,2.59,0,0,0,4,.63A2.45,2.45,0,0,0,6.09,117a4.28,4.28,0,0,0-1.52-1c-.71-.31-1.42-.59-2.1-1a3.3,3.3,0,0,1-1.79-2.22,3.11,3.11,0,0,1,1.93-3.75,4.42,4.42,0,0,1,3-.08,3,3,0,0,1,1.67,1.29c.28.43.28.43-.16.74l-.07,0c-.7.47-.7.47-1.26-.16a2.2,2.2,0,0,0-1.91-.81,1.76,1.76,0,0,0-1.63,1.2,1.8,1.8,0,0,0,.48,2,4.41,4.41,0,0,0,1.15.71c.72.32,1.46.62,2.18,1a3.68,3.68,0,0,1,2,4.67,3.6,3.6,0,0,1-3.27,2.63A3.92,3.92,0,0,1,.36,120c-.22-.57-.22-.58.32-.85,0,0,.09,0,.14-.07Z"/><path class="cls-1" d="M19.55,116.2a1.47,1.47,0,0,0-.12.87c0,1.49,0,3,0,4.47,0,.41-.12.55-.54.54-1.16,0-1,.1-1-1V110c0-.18,0-.37,0-.56s.06-.36.31-.35a33,33,0,0,1,4.22.08c2.55.38,3,2.7,2.69,4.38a3,3,0,0,1-3.06,2.6C21.2,116.24,20.35,116.2,19.55,116.2Zm-.13-3.52c0,.58,0,1.17,0,1.75,0,.3.09.43.41.42a13.51,13.51,0,0,0,1.91-.1c1.23-.17,1.88-.72,1.78-2.25a1.76,1.76,0,0,0-1.66-1.83,10.91,10.91,0,0,0-2-.11c-.34,0-.48.09-.46.44C19.44,111.56,19.42,112.12,19.42,112.68Z"/><path class="cls-1" d="M152.38,116.35c0,1.71,0,3.41,0,5.11,0,.6,0,.61-.61.61-1.14,0-1,.14-1-1,0-3.3,0-6.6,0-9.89,0-.67,0-.62-.61-.62-.88,0-1.75,0-2.63,0-.3,0-.41-.09-.43-.41-.06-1.06-.07-1.06,1-1.06h7.18c.77,0,.72-.07.72.74,0,.11,0,.22,0,.32,0,.32-.12.41-.42.41-.9,0-1.81,0-2.71,0-.4,0-.49.14-.48.51C152.39,112.84,152.38,114.6,152.38,116.35Z"/><path class="cls-1" d="M103.59,109.19c1.52-.19,1.52-.19,1.52,1.23v9.48c0,.65,0,.66.64.66,1.24,0,2.49,0,3.74,0,.39,0,.49.12.5.5,0,1,0,1-1,1-1.62,0-3.24,0-4.86,0-.58,0-.59,0-.59-.55v-12.1A1.57,1.57,0,0,1,103.59,109.19Z"/><path class="cls-1" d="M119.38,115.54c0-1.91,0-3.82,0-5.74,0-.66,0-.67.62-.67,1.13,0,.94-.1,1,.91v11.15a5.19,5.19,0,0,1,0,.56c0,.55-.48.31-.74.3s-.73.26-.82-.3a3.37,3.37,0,0,1,0-.55Z"/><path class="cls-1" d="M73.94,115.54v5.82c0,.7,0,.7-.68.71h-.08c-.81,0-.77.12-.77-.76V109.83a3.85,3.85,0,0,1,0-.48c0-.07.06-.19.1-.19a7.69,7.69,0,0,1,1.27,0c.23,0,.15.31.15.48v5.9Z"/><path class="cls-1" d="M37.4,140c.28.27.65.06,1,.17a1.62,1.62,0,0,1-.38.09c-1.43.07-2.85.18-4.28.34a5,5,0,0,1-.55,0,13.61,13.61,0,0,1,2.54-.42A7,7,0,0,1,37.4,140Z"/></g></g></svg>