<svg width="381" height="109" viewBox="0 0 381 109" fill="#07374D" xmlns="http://www.w3.org/2000/svg">
<path d="M5.35087 90.7142L54.7401 0L64.9367 2.75027L18.2437 89.5783C30.6197 88.6825 47.0759 89.5783 47.0759 89.5783L45.6865 98.9817C45.6865 98.9817 20.8734 97.4714 1.70833 100.784L0 91.4756L5.35087 90.7142Z" transform="translate(0.0822754 0.997772)" />
<path fill-rule="evenodd" clip-rule="evenodd" d="M4.56218 61.0079C14.3795 72.9914 36.8464 70.7766 54.7435 56.0612C72.6405 41.3456 79.1904 19.7018 69.3731 7.71832C59.5557 -4.26517 37.0888 -2.05042 19.1917 12.6651C1.29472 27.3806 -5.25516 49.0244 4.56218 61.0079ZM12.8657 54.5275C19.3659 62.4619 35.627 59.8564 49.1859 48.7079C62.7447 37.5593 68.4669 22.0896 61.9667 14.1552C55.4666 6.22074 39.2055 8.82629 25.6466 19.9748C12.0877 31.1233 6.36557 46.5931 12.8657 54.5275Z" transform="translate(57.3455 31.104)" />
<path fill-rule="evenodd" clip-rule="evenodd" d="M4.56218 61.0079C14.3795 72.9914 36.8464 70.7766 54.7435 56.0612C72.6405 41.3456 79.1904 19.7018 69.3731 7.71832C59.5557 -4.26517 37.0888 -2.05042 19.1917 12.6651C1.29472 27.3806 -5.25516 49.0244 4.56218 61.0079ZM12.8658 54.5275C19.366 62.4619 35.6271 59.8564 49.1859 48.7079C62.7448 37.5593 68.467 22.0896 61.9668 14.1552C55.4666 6.22074 39.2055 8.82629 25.6467 19.9748C12.0878 31.1233 6.36561 46.5931 12.8658 54.5275Z" transform="translate(139.316 31.104)" />
<path d="M0 63.6202L35.1626 2.00286L44.3354 4.94825L36.5738 19.3217L77.2636 0L82.5556 8.01143L33.281 32.7526C38.8082 41.0389 52.6851 60.2507 63.9747 70.8069L56.2131 77.5224C49.3452 71.6787 32.5754 50.8961 25.0489 41.2353L9.52566 67.2724L0 63.6202Z" transform="translate(209.463 30.6201)" />
<path d="M39.4716 40.1582L41.5884 47.2272C24.3011 49.4657 9.36588 54.7673 9.36588 58.4196C9.36588 62.0719 34.1796 60.4224 43.5877 58.4196C52.9957 56.4167 77.8248 47.3836 77.3544 42.9067C76.9781 39.3251 65.383 37.0165 59.3461 36.3882C47.1941 34.8958 20.8281 33.9776 22.9325 24.0754C26.0372 9.46628 51.1897 3.28621 66.0074 0.969177C80.8251 -1.34785 99.7816 0.180826 100.154 8.93721C100.53 17.7969 84.7871 22.3681 76.8686 23.5463L71.2238 17.3021C77.1822 15.692 88.9815 12.0711 88.5111 10.4688C87.9231 8.46593 73.9286 8.34815 57.2293 12.4717C43.8699 15.7705 36.5859 21.8308 34.665 24.462C53.576 27.4778 88.5111 26.7432 88.5111 41.9383C88.5111 55.4324 62.8634 64.0323 44.6656 67.0457C30.4359 69.402 1.76885 71.6384 0.0754021 59.4799C-1.61805 47.3214 25.6339 41.5328 39.4716 40.1582Z" transform="translate(280.771 28.8696)" />
</svg>
