<svg width="398" height="156" viewBox="0 0 398 156" fill="none" xmlns="http://www.w3.org/2000/svg">
<path d="M17.0413 140.389L15.4554 142.385V148.072H11.4359V128.166H15.4554V136.848L16.7269 134.701L20.432 128.166H25.3538L19.6527 136.916L25.4495 148.072H20.6781L17.0413 140.389ZM39.2417 143.998H33.7593L32.6929 148.072H28.4409L34.6616 128.166H38.3394L44.6011 148.072H40.3081L39.2417 143.998ZM34.6343 140.649H38.3531L36.4937 133.553L34.6343 140.649ZM53.2937 141.072V148.072H49.2741V128.166H56.0554C58.0241 128.166 59.5919 128.777 60.7585 129.998C61.9343 131.219 62.5222 132.805 62.5222 134.756C62.5222 136.706 61.9434 138.247 60.7859 139.377C59.6283 140.507 58.0241 141.072 55.9734 141.072H53.2937ZM53.2937 137.723H56.0554C56.821 137.723 57.4135 137.472 57.8327 136.971C58.252 136.469 58.4616 135.74 58.4616 134.783C58.4616 133.79 58.2475 133.001 57.8191 132.418C57.3907 131.826 56.8165 131.525 56.0964 131.516H53.2937V137.723ZM76.4238 142.85C76.4238 142.039 76.2141 141.428 75.7949 141.018C75.3847 140.598 74.6327 140.165 73.539 139.719C71.5429 138.962 70.1074 138.078 69.2324 137.066C68.3574 136.046 67.9199 134.843 67.9199 133.457C67.9199 131.78 68.5123 130.436 69.6972 129.424C70.8912 128.403 72.4042 127.893 74.2363 127.893C75.4576 127.893 76.5468 128.152 77.5038 128.672C78.4609 129.182 79.1946 129.907 79.705 130.846C80.2245 131.785 80.4843 132.851 80.4843 134.045H76.4784C76.4784 133.115 76.2779 132.409 75.8769 131.926C75.485 131.434 74.9153 131.188 74.1679 131.188C73.4661 131.188 72.9192 131.397 72.5273 131.816C72.1353 132.227 71.9394 132.783 71.9394 133.484C71.9394 134.031 72.1581 134.528 72.5956 134.975C73.0331 135.412 73.8079 135.868 74.9199 136.342C76.8613 137.044 78.2695 137.905 79.1445 138.926C80.0286 139.947 80.4706 141.246 80.4706 142.822C80.4706 144.554 79.9192 145.908 78.8163 146.883C77.7135 147.858 76.2141 148.346 74.3183 148.346C73.0331 148.346 71.8619 148.081 70.8046 147.553C69.7473 147.024 68.9179 146.268 68.3163 145.283C67.7239 144.299 67.4277 143.137 67.4277 141.797H71.4609C71.4609 142.945 71.6842 143.779 72.1308 144.299C72.5774 144.818 73.3066 145.078 74.3183 145.078C75.7219 145.078 76.4238 144.335 76.4238 142.85ZM95.4386 143.998H89.9562L88.8898 148.072H84.6378L90.8585 128.166H94.5363L100.798 148.072H96.505L95.4386 143.998ZM90.8312 140.649H94.5499L92.6906 133.553L90.8312 140.649ZM109.491 144.736H116.545V148.072H105.471V128.166H109.491V144.736ZM134.808 139.91C134.808 142.581 134.175 144.654 132.908 146.131C131.65 147.608 129.9 148.346 127.658 148.346C125.425 148.346 123.67 147.617 122.394 146.158C121.118 144.691 120.471 142.64 120.453 140.006V136.602C120.453 133.867 121.086 131.734 122.353 130.203C123.62 128.663 125.379 127.893 127.63 127.893C129.845 127.893 131.591 128.649 132.867 130.162C134.143 131.666 134.79 133.781 134.808 136.506V139.91ZM130.775 136.574C130.775 134.779 130.52 133.443 130.009 132.568C129.499 131.693 128.706 131.256 127.63 131.256C126.564 131.256 125.776 131.68 125.265 132.527C124.755 133.366 124.49 134.647 124.472 136.369V139.91C124.472 141.651 124.732 142.936 125.251 143.766C125.771 144.586 126.573 144.996 127.658 144.996C128.706 144.996 129.485 144.595 129.996 143.793C130.506 142.982 130.766 141.729 130.775 140.033V136.574ZM154.411 148.072H150.391L144.512 135.016V148.072H140.493V128.166H144.512L150.405 141.236V128.166H154.411V148.072ZM169.075 142.713C169.075 141.774 169.285 140.927 169.704 140.17C170.133 139.404 170.93 138.543 172.097 137.586C171.595 136.793 171.199 136.046 170.907 135.344C170.616 134.633 170.47 133.899 170.47 133.143C170.47 131.584 170.903 130.322 171.769 129.356C172.635 128.38 173.792 127.893 175.241 127.893C176.545 127.893 177.616 128.344 178.454 129.246C179.302 130.139 179.726 131.238 179.726 132.541C179.726 134.273 179.001 135.718 177.552 136.875L176.458 137.764L179.015 141.332C179.334 140.393 179.493 139.382 179.493 138.297H182.761C182.761 140.858 182.26 142.918 181.257 144.477L183.827 148.072H179.439L178.7 147.033C177.525 147.908 176.166 148.346 174.626 148.346C172.949 148.346 171.605 147.831 170.593 146.801C169.581 145.771 169.075 144.408 169.075 142.713ZM174.831 145.147C175.551 145.147 176.23 144.91 176.868 144.436L173.724 139.992L173.642 140.061C173.186 140.762 172.958 141.569 172.958 142.481C172.958 143.246 173.136 143.884 173.491 144.395C173.856 144.896 174.303 145.147 174.831 145.147ZM173.915 133.074C173.915 133.721 174.225 134.514 174.845 135.453L175.487 134.961C175.87 134.669 176.144 134.369 176.308 134.059C176.472 133.74 176.554 133.316 176.554 132.787C176.554 132.313 176.422 131.917 176.157 131.598C175.902 131.27 175.592 131.106 175.228 131.106C174.827 131.106 174.508 131.288 174.271 131.652C174.034 132.008 173.915 132.482 173.915 133.074ZM211.918 148.072H207.912V139.555H201.978V148.072H197.959V128.166H201.978V136.219H207.912V128.166H211.918V148.072ZM227.706 143.998H222.223L221.157 148.072H216.905L223.126 128.166H226.803L233.065 148.072H228.772L227.706 143.998ZM223.098 140.649H226.817L224.958 133.553L223.098 140.649ZM247.24 143.998H241.758L240.691 148.072H236.439L242.66 128.166H246.338L252.6 148.072H248.307L247.24 143.998ZM242.633 140.649H246.351L244.492 133.553L242.633 140.649ZM263.302 140.799H261.306V148.072H257.286V128.166H263.698C265.713 128.166 267.267 128.69 268.36 129.738C269.463 130.777 270.015 132.259 270.015 134.182C270.015 136.825 269.053 138.675 267.13 139.733L270.616 147.881V148.072H266.296L263.302 140.799ZM261.306 137.449H263.589C264.391 137.449 264.993 137.185 265.394 136.656C265.795 136.119 265.995 135.403 265.995 134.51C265.995 132.514 265.216 131.516 263.657 131.516H261.306V137.449ZM288.51 140.676L290.397 128.166H294.375L290.834 148.072H286.801L284.477 136.342L282.18 148.072H278.133L274.578 128.166H278.584L280.457 140.662L282.795 128.166H286.172L288.51 140.676ZM309.63 139.459H303.369V144.736H310.779V148.072H299.349V128.166H310.751V131.516H303.369V136.219H309.63V139.459ZM321.932 140.799H319.936V148.072H315.917V128.166H322.329C324.343 128.166 325.897 128.69 326.991 129.738C328.094 130.777 328.645 132.259 328.645 134.182C328.645 136.825 327.684 138.675 325.76 139.733L329.247 147.881V148.072H324.927L321.932 140.799ZM319.936 137.449H322.219C323.022 137.449 323.623 137.185 324.024 136.656C324.425 136.119 324.626 135.403 324.626 134.51C324.626 132.514 323.846 131.516 322.288 131.516H319.936V137.449ZM339.812 140.389L338.227 142.385V148.072H334.207V128.166H338.227V136.848L339.498 134.701L343.203 128.166H348.125L342.424 136.916L348.221 148.072H343.449L339.812 140.389ZM362.792 139.459H356.53V144.736H363.941V148.072H352.511V128.166H363.913V131.516H356.53V136.219H362.792V139.459ZM382.983 148.072H378.963L373.084 135.016V148.072H369.065V128.166H373.084L378.977 141.236V128.166H382.983V148.072Z" fill="white"/>
<path d="M13.5492 90.8882L62.9384 0.17395L73.135 2.92422L26.442 89.7523C38.818 88.8564 55.2742 89.7523 55.2742 89.7523L53.8848 99.1556C53.8848 99.1556 29.0717 97.6453 9.90663 100.958L8.1983 91.6496L13.5492 90.8882Z" fill="white"/>
<path fill-rule="evenodd" clip-rule="evenodd" d="M70.0237 91.288C79.841 103.272 102.308 101.057 120.205 86.3413C138.102 71.6258 144.652 49.982 134.835 37.9985C125.017 26.015 102.55 28.2297 84.6532 42.9452C66.7562 57.6607 60.2063 79.3045 70.0237 91.288ZM78.3272 84.8077C84.8274 92.7421 101.089 90.1365 114.647 78.988C128.206 67.8395 133.928 52.3697 127.428 44.4353C120.928 36.5009 104.667 39.1064 91.1081 50.255C77.5492 61.4035 71.8271 76.8733 78.3272 84.8077Z" fill="white"/>
<path fill-rule="evenodd" clip-rule="evenodd" d="M151.994 91.288C161.811 103.272 184.278 101.057 202.175 86.3413C220.072 71.6258 226.622 49.982 216.805 37.9985C206.987 26.015 184.521 28.2297 166.623 42.9452C148.726 57.6607 142.177 79.3045 151.994 91.288ZM160.297 84.8077C166.798 92.7421 183.059 90.1365 196.618 78.988C210.176 67.8395 215.899 52.3697 209.398 44.4353C202.898 36.5009 186.637 39.1064 173.078 50.255C159.519 61.4035 153.797 76.8733 160.297 84.8077Z" fill="white"/>
<path d="M217.579 93.4164L252.742 31.7991L261.915 34.7445L254.153 49.1179L294.843 29.7962L300.135 37.8077L250.86 62.5488C256.388 70.8352 270.264 90.0469 281.554 100.603L273.793 107.319C266.925 101.475 250.155 80.6924 242.628 71.0315L227.105 97.0687L217.579 93.4164Z" fill="white"/>
<path d="M328.359 68.204L330.476 75.2729C313.189 77.5114 298.253 82.8131 298.253 86.4654C298.253 90.1176 323.067 88.4682 332.475 86.4654C341.883 84.4625 366.712 75.4294 366.242 70.9524C365.866 67.3708 354.27 65.0623 348.234 64.4339C336.082 62.9416 309.716 62.0234 311.82 52.1211C314.925 37.5121 340.077 31.332 354.895 29.015C369.713 26.6979 388.669 28.2266 389.041 36.983C389.417 45.8427 373.675 50.4139 365.756 51.5921L360.111 45.3479C366.07 43.7377 377.869 40.1169 377.399 38.5146C376.811 36.5117 362.816 36.3939 346.117 40.5175C332.757 43.8163 325.473 49.8766 323.553 52.5078C342.464 55.5236 377.399 54.789 377.399 69.984C377.399 83.4782 351.751 92.0781 333.553 95.0915C319.323 97.4478 290.656 99.6842 288.963 87.5257C287.269 75.3672 314.521 69.5785 328.359 68.204Z" fill="white"/>
</svg>
